<svg width="180" height="40" viewBox="0 0 180 40" xmlns="http://www.w3.org/2000/svg" aria-labelledby="title" role="img">
  <title>VIMAANNA</title>
  <!-- Transparent background by default (no rect fill) -->
  <defs>
    <linearGradient id="wingGrad" x1="0" y1="0" x2="1" y2="1">
      <stop offset="0%" stop-color="#0f2a6f" />
      <stop offset="100%" stop-color="#0a1c4a" />
    </linearGradient>
  </defs>

  <!-- Wing mark -->
  <g fill="url(#wingGrad)" transform="translate(6,6)">
    <path d="M0 18c6-8 18-12 34-12-6 5-13 8-21 9 7 0 14 2 20 5-12 5-25 5-33-2z"/>
    <path d="M1 10c6-6 14-10 25-11-5 4-10 7-16 9 5 0 10 1 14 3-8 4-18 3-23-1z" opacity="0.9"/>
    <path d="M2 4c5-5 11-8 19-9-4 3-7 5-11 6 4 0 7 1 10 2-6 3-13 2-18-1z" opacity="0.8"/>
    <circle cx="43" cy="2" r="2.6" opacity="0.95"/>
  </g>

  <!-- Wordmark -->
  <g fill="#0f2a6f" transform="translate(70,29)">
    <path d="M0 0 L0 -18 L3 -18 L9 -6 L15 -18 L18 -18 L18 0 L15 0 L15 -12 L9 -2 L3 -12 L3 0 Z"/>
    <path d="M28 0 L22 -14 L25 -14 L29 -4 L33 -14 L36 -14 L30 0 Z"/>
    <path d="M40 0 L40 -14 L43 -14 L43 0 Z"/>
    <path d="M50 0 L50 -14 L53 -14 L60 -2 L60 -14 L63 -14 L63 0 L60 0 L53 -12 L53 0 Z"/>
    <path d="M70 0 L70 -14 L80 -14 L80 -11 L73 -11 L73 -8 L79 -8 L79 -5 L73 -5 L73 -3 L80 -3 L80 0 Z"/>
    <path d="M86 0 L92 -14 L95 -14 L101 0 L98 0 L96 -5 L91 -5 L89 0 Z M92 -7 L95 -7 L93.5 -10.5 Z"/>
    <path d="M106 0 L106 -14 L116 -14 L116 -11 L109 -11 L109 -8 L115 -8 L115 -5 L109 -5 L109 0 Z"/>
  </g>
</svg>


